/* XPM */
static char *_7c670d5d88a40d0bd3f48962e5d0deezEKEbr4sxbmMUx8K[] = {
/* columns rows colors chars-per-pixel */
"32 32 190 2 ",
"   c None",
".  c #613611",
"X  c #623611",
"o  c #613612",
"O  c #623612",
"+  c #623712",
"@  c #643812",
"#  c #643913",
"$  c #673B14",
"%  c #673C14",
"&  c #6C4015",
"*  c #6C4115",
"=  c #6D4115",
"-  c #6E4215",
";  c #714516",
":  c #764A17",
">  c #774A17",
",  c #774B17",
"<  c #784B17",
"1  c #7E5119",
"2  c #815419",
"3  c #885A1A",
"4  c #8C5E1B",
"5  c #8D5F1C",
"6  c #90611D",
"7  c #94661D",
"8  c #95661D",
"9  c #96671E",
"0  c #96681D",
"q  c #96681E",
"w  c #97681E",
"e  c #996A1E",
"r  c #9A6B1E",
"t  c #9A6B1F",
"y  c #9E6E1F",
"u  c #A27320",
"i  c #A77721",
"p  c #AE7E21",
"a  c #AF7F23",
"s  c #A17528",
"d  c #B38223",
"f  c #B18124",
"g  c #BF8F28",
"h  c #A78032",
"j  c #A88133",
"k  c #AD883B",
"l  c #AE893A",
"z  c #B48D38",
"x  c #B58F3A",
"c  c #BC9233",
"v  c #BF9535",
"b  c #B99138",
"n  c #BB943A",
"m  c #C08F29",
"M  c #C09029",
"N  c #C19029",
"B  c #C0902A",
"V  c #C1902A",
"C  c #C4932A",
"Z  c #C0912C",
"A  c #C1932F",
"S  c #C7972D",
"D  c #C7982D",
"F  c #CA9A2E",
"G  c #CA9B2E",
"H  c #CA9D34",
"J  c #CA9E34",
"K  c #C69F3F",
"L  c #CDA034",
"P  c #CFA236",
"I  c #D1A63B",
"U  c #D1A73B",
"Y  c #D2A83D",
"T  c #D2A93E",
"R  c #D3AA3E",
"E  c #D3AA3F",
"W  c #D3AB3F",
"Q  c #D4AB3F",
"!  c #C3A147",
"~  c #C6A245",
"^  c #C4A146",
"/  c #CAA544",
"(  c #C4A348",
")  c #C5A348",
"_  c #C9A648",
"`  c #D4AB40",
"'  c #D4AC40",
"]  c #D4AC41",
"[  c #D4AC42",
"{  c #D4AD42",
"}  c #D0AA45",
"|  c #D6B045",
" . c #D6B046",
".. c #D6B148",
"X. c #D2B04C",
"o. c #D5B24C",
"O. c #D8B44A",
"+. c #D9B54C",
"@. c #D9B64C",
"#. c #DBB84E",
"$. c #CEAF52",
"%. c #CEB053",
"&. c #CFB153",
"*. c #D1B150",
"=. c #D1B151",
"-. c #D2B252",
";. c #D3B453",
":. c #D4B452",
">. c #D4B453",
",. c #D6B652",
"<. c #D6B653",
"1. c #D5B756",
"2. c #D6B855",
"3. c #D6B857",
"4. c #D7B957",
"5. c #DCBB52",
"6. c #DDBC53",
"7. c #D8BA57",
"8. c #DABB56",
"9. c #DABC57",
"0. c #DBBC57",
"q. c #DDBC54",
"w. c #DDBD55",
"e. c #DEBE55",
"r. c #D6B959",
"t. c #D7BA58",
"y. c #D6BA5A",
"u. c #D7BB5A",
"i. c #D6BA5B",
"p. c #D9BC59",
"a. c #DABC58",
"s. c #DBBE59",
"d. c #DCBF5A",
"f. c #DCBF5B",
"g. c #DFC058",
"h. c #DCC05B",
"j. c #DDC15C",
"k. c #DEC25D",
"l. c #DFC25D",
"z. c #DFC45F",
"x. c #E0C25A",
"c. c #E0C35B",
"v. c #E1C35B",
"b. c #E1C35C",
"n. c #E2C55E",
"m. c #E2C65E",
"M. c #E2C65F",
"N. c #DDC463",
"B. c #DEC564",
"V. c #E1C560",
"C. c #E1C762",
"Z. c #E2C862",
"A. c #E2C863",
"S. c #E5CB64",
"D. c #E4CA65",
"F. c #E6CD67",
"G. c #E6CE67",
"H. c #E7CE68",
"J. c #E7CF68",
"K. c #E7CF69",
"L. c #E8D16B",
"P. c #E8D26C",
"I. c #E9D26C",
"U. c #E9D26D",
"Y. c #E9D36D",
"T. c #EAD46F",
"R. c #EAD56F",
"E. c #EBD671",
"W. c #EBD771",
"Q. c #EBD772",
"!. c #ECD873",
"~. c #ECD973",
"^. c #EDD974",
"/. c #EDDA74",
"(. c #EDDA75",
"). c #EEDC77",
"_. c #EEDD78",
"`. c #F0DF7B",
"'. c #F1E27E",
"]. c #F2E480",
"[. c #F3E682",
"{. c #F4E783",
"}. c #F4E784",
"|. c #F4E884",
" X c #F5E986",
".X c #F6EA87",
"XX c #F6EB88",
"oX c #F7EC89",
"OX c #F8ED8B",
"+X c #F8EF8C",
/* pixels */
"                                                                ",
"                                                                ",
"                                                                ",
"                                                                ",
"                                                                ",
"                                                                ",
"                            #.`.].w.                            ",
"                            +._.'.5.                            ",
"                              }.|.                              ",
"                          n.E.|.oX).S.                          ",
"                      L  .g.Y.}.oX~.n.O.P                       ",
"                  6 f S Y w.Y.}.|.~.l.{ D f 5                   ",
"          *.    $ , t V Y w.H.XX+XE.x.` V q , %     >.          ",
"          2.d.  O & 0 g Y w.H.    Y.x.[ g 7 & +   p.7.          ",
"          ) 1.  O & 0 V Y w.        x.[ V 7 & +   2.^           ",
"        d.  r.  O & 0 V U     }.XX    [ g 0 & +   r.  l.        ",
"          j %.  # & 0 V     Y.{.|.^.  Q g 0 & $   %.j           ",
"        N.k $.    ; 0 g   b.H.    ~.v.Y g 7 ;     %.l N.        ",
"          x !     < 0 g   b.S.      x.Q V 0 ,     ( x           ",
"          r.b     2 e V     I.{.|.^.  Y g 0 1     n r.          ",
"            c ;.  4 y V I     }.OX    Q V r 3   2.A             ",
"          d.p.P >.  i V Y w.        x.[ g u s -./ 7.l.          ",
"              p.;./ d C Y w.K.    Y.v.[ C f ^ 2.l.              ",
"              A.B.r.A F Y w.K.  +XY.v.[ G V 2.B.A.              ",
"                Y.>.o.J [ w.Y.}.|.~.v. .J } X.Y.                ",
"                  l.0.  o.g.Y.|.oX~.n.+.  >.n.                  ",
"                      Z.  n.Y.|.oX^.S.  Z.                      ",
"                              |.oX                              ",
"                                                                ",
"                                                                ",
"                                                                ",
"                                                                "
};
