/* XPM */
static char *_5c5db3c79224ffd9698abbe7cf0c3f02VQ3z7KY0834dcME[] = {
/* columns rows colors chars-per-pixel */
"80 80 151 2 ",
"   c None",
".  c #5F3412",
"X  c #613612",
"o  c #653A13",
"O  c #693D14",
"+  c #6D4114",
"@  c #734616",
"#  c #764917",
"$  c #784B17",
"%  c #7B4E18",
"&  c #7E5118",
"*  c #825519",
"=  c #87591A",
"-  c #895B1B",
";  c #93641D",
":  c #97691E",
">  c #9B6C1E",
",  c #9D6F22",
"<  c #A37421",
"1  c #A77924",
"2  c #AD7D23",
"3  c #A67B2B",
"4  c #AB7F29",
"5  c #B07F23",
"6  c #AD822B",
"7  c #B38324",
"8  c #B98725",
"9  c #BE8D26",
"0  c #B3862C",
"q  c #B78A2D",
"w  c #B98A2B",
"e  c #AE8431",
"r  c #B28730",
"t  c #B48B33",
"y  c #BA8F30",
"u  c #BD9234",
"i  c #BC9539",
"p  c #BE983D",
"a  c #C08E27",
"s  c #C39227",
"d  c #C69529",
"f  c #C8972A",
"g  c #CA9A2E",
"h  c #C19532",
"j  c #C59A36",
"k  c #CC9D31",
"l  c #C49D3B",
"z  c #C99F3A",
"x  c #CFA236",
"c  c #C7A03E",
"v  c #CDA33B",
"b  c #CFA83F",
"n  c #D0A539",
"m  c #D2A93E",
"M  c #C59E40",
"N  c #C7A243",
"B  c #CBA542",
"V  c #CEA844",
"C  c #C9A648",
"Z  c #CDAB4A",
"A  c #D4AC42",
"S  c #D1AE4A",
"D  c #D6B046",
"F  c #D6B34A",
"G  c #D9B54C",
"H  c #DAB84E",
"J  c #CBAD53",
"K  c #CFB256",
"L  c #CFB358",
"P  c #D4B452",
"I  c #D8B750",
"U  c #D7B956",
"Y  c #DCBB53",
"T  c #DABD58",
"R  c #DFC057",
"E  c #DFC159",
"W  c #E1C35C",
"Q  c #E2C761",
"!  c #E4CA64",
"~  c #E6CE68",
"^  c #E8CF69",
"/  c #E7D06A",
"(  c #E9D26C",
")  c #EAD46D",
"_  c #E9D46E",
"`  c #EAD46E",
"'  c #EAD46F",
"]  c #EAD56F",
"[  c #EBD56F",
"{  c #E9D26C",
"}  c #EAD570",
"|  c #EBD670",
" . c #EBD671",
".. c #EBD772",
"X. c #ECD670",
"o. c #ECD773",
"O. c #EBD671",
"+. c #ECD872",
"@. c #EDD972",
"#. c #ECD873",
"$. c #ECD974",
"%. c #EDD974",
"&. c #EDDA74",
"*. c #EDDA75",
"=. c #EEDA75",
"-. c #EDDB76",
";. c #EEDB77",
":. c #EEDC76",
">. c #EEDC77",
",. c #EDDA75",
"<. c #EEDC78",
"1. c #EEDD78",
"2. c #EFDD79",
"3. c #EFDE79",
"4. c #EEDD78",
"5. c #F0DF7A",
"6. c #F0DF7B",
"7. c #F0DF7A",
"8. c #F0E07B",
"9. c #F1E17C",
"0. c #F1E27D",
"q. c #F1E27E",
"w. c #F2E37F",
"e. c #F1E27E",
"r. c #EFE281",
"t. c #F2E480",
"y. c #F3E480",
"u. c #F3E581",
"i. c #F3E582",
"p. c #F3E682",
"a. c #F4E683",
"s. c #F4E784",
"d. c #F3E581",
"f. c #F5E986",
"g. c #F6EA87",
"h. c #F5E986",
"j. c #F6EB88",
"k. c #F7EC89",
"l. c #F7EC8A",
"z. c #F7ED8A",
"x. c #F7EC8A",
"c. c #F8ED8B",
"v. c #F8EE8B",
"b. c #F8EE8C",
"n. c #F8EF8C",
"m. c #F8EF8D",
"M. c #F9EF8D",
"N. c #F9EE8C",
"B. c #F9F08D",
"V. c #F9F08E",
"C. c #F9F08E",
/* pixels */
"                                                                                                                                                                ",
"                                                                                                                                                                ",
"                                                                                                                                                                ",
"                                                                                                                                                                ",
"                                                                                                                                                                ",
"                                                                                                                                                                ",
"                                                                                                                                                                ",
"                                                                                                                                                                ",
"                                                                                                                                                                ",
"                                                                                                                                                                ",
"                                                                                                                                                                ",
"                                                                              j.c.                                                                              ",
"                                                                            -.f.c.0.                                                                            ",
"                                                                              k.B.                                                                              ",
"                                                              @ -             c.c.            - @                                                               ",
"                                                                :       Y     f.z.    R       ;                                                                 ",
"                                                                  7     Y Q -.f.z.8.^ R     7                                                                   ",
"                                                                    g m Y !  .f.z.8./ R A k                                                                     ",
"                                                                    k m Y Q -.s.z.8.( R D k                                                                     ",
"                                                                      m H ! -.f.z.8.( E A x                                                                     ",
"                                                                                B.                                                                              ",
"                                                                            s.M.B.j.                                                                            ",
"                                                                        @.3.a.c.B.z.u.3. .                                                                      ",
"                                                                    ! ( @.8.u.c.B.f.w.3.[ ^ !                                                                   ",
"                                                                Y W ! (  .5.u.c.M.j.t.;. .^ W W Y                                                               ",
"                                                            A F H W W ~ ) 3.u.c.M.s.6.-.{   W W H A m                                                           ",
"                                                        k n A F H Y W ! { 3.u.c.M.j.0.-.{ ! W   H D n x f                                                       ",
"                                                  2 w f k x m A F Y W ^ { -.u.c.M.s.0.-.{ ! T H D   n x f 8 2                                                   ",
"                                              - > 2 8 d g g x A F Y W ! [ ;.u.M.M.f.0.-.( ! R H A n g   d 8 1 : -                                               ",
"                                          o # - > 1   7 a g k A F Y W ~ ) 3.u.k.B.f.0.-.( ! E H A n g s 2   < : - @ O                                           ",
"                            ~             o # -   - , 5 a g x m F Y W ! ) ;.  M.B.f.  @.( W R H A n g s 2 > -   * @ o             ~                             ",
"                          0 Q M           o + o @ - > 5 a g x A F Y E ~ )     M.B.    @.) ! R H D n g 9 2 > - @ o @ O X         i ! u                           ",
"                          3 Q p           o O o @ - > 2 a g x A F Y W ~ (     B.M.     .{ ! R G A n g s 2 > = @ o   o X         t ! r                           ",
"                    , F   0 Q M   ( y     o O X @ = > 5 a f x m G H W ! (     B.M.    -.( ! W H A n g a 2 : = @ o o o .   q !   i !     U <                     ",
"                      T 0.  ^ H  .{ v   X o   X @ - , 5 a g n A F Y W ~ )     M.M.    o.( ! R H A n g a 2 > - @ X o o X   j ~ -.S (   3.E                       ",
"                      W -.A L c ( -.    X X   o @ = > 5 a g k m F H W ~ )             @.( Q R H D n g a 2 > = @ o   o X      .[ v J A  .~                       ",
"                        @.l & 0           o   X @ - , 5 a g x A F Y W                   ( ! W H m n g 9 2 > = @ X o o X         t * u )                         ",
"                                  Y 1     o O X @ - > 5 a g x A F Y                         T H D n g s 2 > = @ o O o X   < F                                   ",
"                    j  .    @ I 5.E       o O X @ = > 5 a g x A D                             H D n g 9 2 > = @ o o o       Y 5.T @     -.z                     ",
"                    v @. .  * A 3.        O O X @ - > 5 a f x m         ) 3.u.M.M.f.0.          m n g s 2 : = @ o O o         6.G *   / ;.A                     ",
"                      -.( 6 %             o + o @ - > 5 a g x         ^ { 5.a.c.M.f.0.-.)       m n g a 2 > - @ X + O             * 4 ^ 5.                      ",
"                        ! 4 +   3.V       o @ X @ - > 5 a g x       W ! { 5.t.c.M.f.0.-.{ !     A n g a 2 > = @ o + o       l 3.  + 1 W                         ",
"                            + G -.G       O @ X @ - > 2 a g         W ~ [ -.        0.-.( W W H D n g a 2 : = @ o + O       S -.T +                             ",
"                    j /     $ B -.        o @ o @ - > 5 a f       Y W ! {             o.( ! R H A n f a 2 > = @ o @ O         5.Z $      .z                     ",
"                    v { 8.N & i           O # O @ - , 5 a g       T W !                           n g a 2 : = @ O # O           l * N -.@.b                     ",
"                      @.3.A -     ! 6     O # @ @ - > 5 a g       Y W !                         D n g a 2 > = @ @ @ O     1 Q     - v @.3.                      ",
"                            -   T ^         # & @ - , 5 a g       R W ^ {             -.{ ! R G m n g a 2 > * @ @ $         Q Q   =                             ",
"                              ; F @.        # * @ - , 5 a f         W ! ) -.        0.-.{ ! W G D n g a 2 > - # * $         { U :                               ",
"                      z { a.  ; N   / i     % = % - > 2 a g k       W ! { 3.u.z.M.f.0.-.{ !     m n g s 2 > = $ * @     t !   Z ;   0. .v                       ",
"                      v { 0.Y <     ~ i     % -   - > 7 a g x         ~ ) ;.u.c.M.f.0.-.)       D n g 9 2 > = * = %     r /     1 F 5.@.A                       ",
"                          0.H 1   u ! N       - ; - , 2 a g x m          .3.u.c.M.f.0.-.        m n g s 2 > - - =       i ! l 1 1 F 3.                          ",
"                                8 r ~         - > ; > 2 a f x A D           u.c.M.j.          G D n g 9 2 > - ; -         ~ u 9                                 ",
"                                  y     ! l   - >   > 2 a g x A F Y                         W H D n g 9 7 : ; : -   t !     h                                   ",
"                        < A  .0.H h     W i     , < < 5 a g k A G Y W                   ( ~ W G m n g 9 2 > < :     e W     j F 3.-.A <                         ",
"                          A  .0.I 0 M e W       > 1   2 a g x m D Y W !  .            @.( W W H D n g s 2 < < >       Q i C 0 A 3.3.G                           ",
"                                      N !   P ~   2 8 7 9 g x A F Y W ~ )     M.B.     .^ W W H D n g 9 7 2 <   ^ T   ! Z                                       ",
"                                      T ~   N U   2 8   a g x m F Y W ^ (     B.M.    o.{ ! W F D n g 9 8 8 1   U Z    .W                                       ",
"                              w Y 0. .A Z   C U     9 s a g x A F Y W W )     B.M.    @.{ Q W H D n g s s 8     P P   J A / t.E w                               ",
"                              w Y 0. .m   r.Q Q     a f g g x A F Y W ~ )     B.M.    -.{ ! T H m n g   d 8     T ~ i.  v { t.T w                               ",
"                                            0.3.  l   f k   x m F H W ~ )     B.M.    @.{ ! W G D n k x f        .3.                                            ",
"                                        o.0.E S   T ^   k n n A G Y W Q ) -.u.z.B.f.0.@.X.W W H D n n x f   W   N Y ;.5.                                        ",
"                                      A  .0.H 0 P T Y     n m A D Y W ~  .3.u.b.B.f.0.-.( W R H D m n x   A H V 0 F 5.-.A                                       ",
"                                      A )           m 5   n A F H Y W ! ) -.u.z.B.f.w.&.( ! W H G D m   < j           3.A                                       ",
"                                                -.6.A < *   A D Y   W ~ ) 3.u.b.B.f.0.&.( ! W Y H F     < A -.5.                                                ",
"                                              A  .6.H         G Y W   ! ) 3.u.b.M.f.0.-.{   W R H         F -.-.A                                               ",
"                                              v  .         .z   Y W ! ~  .-.u.z.M.s.0.-.  ~ ! E   h ~         -.A                                               ",
"                                                      v {  .z       ! ~  .3.u.b.M.j.  3. ./ !     u ~ @.                                                        ",
"                                                      u ~ 5.          ( @.5.a.b.M.j.t.3. .          ) [ j                                                       ",
"                                                                Y (       8.s.c.M.j.u.3.    ! W                                                                 ",
"                                                                Z             c.M.j.          P                                                                 ",
"                                                                                                                                                                ",
"                                                                                                                                                                ",
"                                                                                                                                                                ",
"                                                                                                                                                                ",
"                                                                                                                                                                ",
"                                                                                                                                                                ",
"                                                                                                                                                                ",
"                                                                                                                                                                ",
"                                                                                                                                                                ",
"                                                                                                                                                                "
};
